<svg width="54" height="50" viewBox="0 0 54 50" fill="none" xmlns="http://www.w3.org/2000/svg">
<g opacity="0.8">
<circle cx="26.692" cy="28.7035" r="20.679" fill="#FDA758"/>
<circle cx="51.5367" cy="10.0307" r="2.00618" fill="#FDA758"/>
<ellipse cx="3.69753" cy="3.08642" rx="3.24074" ry="3.08642" fill="#FDA758"/>
<ellipse cx="2" cy="42.1298" rx="1.54321" ry="1.69753" fill="#FDA758"/>
<ellipse cx="47.8331" cy="49.3825" rx="0.771606" ry="0.617285" fill="#FDA758"/>
<path d="M25.1552 34.2956C24.7167 34.2956 24.2781 34.1077 24.0275 33.7318L20.5192 29.2211C20.018 28.5946 20.1433 27.7175 20.7698 27.2163C21.3963 26.7151 22.2734 26.8404 22.7746 27.4669L25.1552 30.5367L30.4177 23.708C30.9189 23.0815 31.796 22.9562 32.4225 23.4574C33.049 23.9586 33.1743 24.8357 32.6731 25.4622L26.2829 33.7318C25.9697 34.045 25.5938 34.2956 25.1552 34.2956Z" fill="white"/>
<circle cx="35.4882" cy="31.9442" r="0.771606" fill="white"/>
<circle cx="15.2714" cy="23.4567" r="1.23457" fill="white"/>
<circle cx="33.3275" cy="16.8211" r="0.462964" fill="white"/>
<circle cx="20.5187" cy="38.5805" r="0.617285" fill="white"/>
<circle cx="27.3086" cy="23.7652" r="0.308642" fill="white"/>
</g>
</svg>
